HIERARCHY
ROOT hip
{
  OFFSET 0 0 0
  CHANNELS 6 Xposition Yposition Zposition Zrotation Yrotation Xrotation
  JOINT abdomen
  {
    OFFSET 0 20.6881 -0.73152
    CHANNELS 3 Zrotation Xrotation Yrotation
    JOINT chest
    {
      OFFSET 0 11.7043 -0.48768
      CHANNELS 3 Zrotation Xrotation Yrotation
      JOINT neck
      {
        OFFSET 0 22.1894 -2.19456
        CHANNELS 3 Zrotation Xrotation Yrotation
        JOINT head
        {
          OFFSET -0.24384 7.07133 1.2192
          CHANNELS 3 Zrotation Xrotation Yrotation
          JOINT leftEye
          {
            OFFSET 4.14528 8.04674 8.04672
            CHANNELS 3 Zrotation Xrotation Yrotation
            End Site
            {
              OFFSET 1 0 0
            }
          }
          JOINT rightEye
          {
            OFFSET -3.6576 8.04674 8.04672
            CHANNELS 3 Zrotation Xrotation Yrotation
            End Site
            {
              OFFSET 1 0 0
            }
          }
        }
      }
      JOINT rCollar
      {
        OFFSET -2.68224 19.2634 -4.8768
        CHANNELS 3 Zrotation Xrotation Yrotation
        JOINT rShldr
        {
          OFFSET -8.77824 -1.95073 1.46304
          CHANNELS 3 Zrotation Xrotation Yrotation
          JOINT rForeArm
          {
            OFFSET -28.1742 -1.7115 0.48768
            CHANNELS 3 Zrotation Xrotation Yrotation
            JOINT rHand
            {
              OFFSET -22.5879 0.773209 7.07136
              CHANNELS 3 Zrotation Xrotation Yrotation
              JOINT rThumb1
              {
                OFFSET -1.2192 -0.487915 3.41376
                CHANNELS 3 Zrotation Xrotation Yrotation
                JOINT rThumb2
                {
                  OFFSET -3.37035 -0.52449 3.41376
                  CHANNELS 3 Zrotation Xrotation Yrotation
                  End Site
                  {
                    OFFSET -1.78271 -1.18214 1.43049
                  }
                }
              }
              JOINT rIndex1
              {
                OFFSET -7.75947 0.938293 5.60832
                CHANNELS 3 Zrotation Xrotation Yrotation
                JOINT rIndex2
                {
                  OFFSET -2.54057 -0.884171 1.56538
                  CHANNELS 3 Zrotation Xrotation Yrotation
                  End Site
                  {
                    OFFSET -1.62519 -0.234802 1.16502
                  }
                }
              }
              JOINT rMid1
              {
                OFFSET -8.24714 1.18213 3.41376
                CHANNELS 3 Zrotation Xrotation Yrotation
                JOINT rMid2
                {
                  OFFSET -3.10165 -0.590103 1.0647
                  CHANNELS 3 Zrotation Xrotation Yrotation
                  End Site
                  {
                    OFFSET -2.48547 -0.328903 0.83742
                  }
                }
              }
              JOINT rRing1
              {
                OFFSET -8.82822 0.546677 1.51678
                CHANNELS 3 Zrotation Xrotation Yrotation
                JOINT rRing2
                {
                  OFFSET -2.60934 -0.819778 -0.0198488
                  CHANNELS 3 Zrotation Xrotation Yrotation
                  End Site
                  {
                    OFFSET -2.33842 -0.294052 0.168128
                  }
                }
              }
              JOINT rPinky1
              {
                OFFSET -8.27202 -0.0477905 -0.4584
                CHANNELS 3 Zrotation Xrotation Yrotation
                JOINT rPinky2
                {
                  OFFSET -1.82734 -0.647385 -0.700984
                  CHANNELS 3 Zrotation Xrotation Yrotation
                  End Site
                  {
                    OFFSET -1.69225 -0.51767 -0.607171
                  }
                }
              }
            }
          }
        }
      }
      JOINT lCollar
      {
        OFFSET 2.68224 19.2634 -4.8768
        CHANNELS 3 Zrotation Xrotation Yrotation
        JOINT lShldr
        {
          OFFSET 8.77824 -1.95073 1.46304
          CHANNELS 3 Zrotation Xrotation Yrotation
          JOINT lForeArm
          {
            OFFSET 28.1742 -1.7115 0.48768
            CHANNELS 3 Zrotation Xrotation Yrotation
            JOINT lHand
            {
              OFFSET 22.5879 0.773209 7.07136
              CHANNELS 3 Zrotation Xrotation Yrotation
              JOINT lThumb1
              {
                OFFSET 1.2192 -0.487915 3.41376
                CHANNELS 3 Zrotation Xrotation Yrotation
                JOINT lThumb2
                {
                  OFFSET 3.37035 -0.52449 3.41376
                  CHANNELS 3 Zrotation Xrotation Yrotation
                  End Site
                  {
                    OFFSET 1.78271 -1.18214 1.43049
                  }
                }
              }
              JOINT lIndex1
              {
                OFFSET 7.75947 0.938293 5.60832
                CHANNELS 3 Zrotation Xrotation Yrotation
                JOINT lIndex2
                {
                  OFFSET 2.54057 -0.884171 1.56538
                  CHANNELS 3 Zrotation Xrotation Yrotation
                  End Site
                  {
                    OFFSET 1.62519 -0.234802 1.16502
                  }
                }
              }
              JOINT lMid1
              {
                OFFSET 8.24714 1.18213 3.41376
                CHANNELS 3 Zrotation Xrotation Yrotation
                JOINT lMid2
                {
                  OFFSET 3.10165 -0.590103 1.0647
                  CHANNELS 3 Zrotation Xrotation Yrotation
                  End Site
                  {
                    OFFSET 2.48547 -0.328903 0.83742
                  }
                }
              }
              JOINT lRing1
              {
                OFFSET 8.82822 0.546677 1.51678
                CHANNELS 3 Zrotation Xrotation Yrotation
                JOINT lRing2
                {
                  OFFSET 2.60934 -0.819778 -0.0198488
                  CHANNELS 3 Zrotation Xrotation Yrotation
                  End Site
                  {
                    OFFSET 2.33842 -0.294052 0.168128
                  }
                }
              }
              JOINT lPinky1
              {
                OFFSET 8.27202 -0.0477905 -0.4584
                CHANNELS 3 Zrotation Xrotation Yrotation
                JOINT lPinky2
                {
                  OFFSET 1.82734 -0.647385 -0.700984
                  CHANNELS 3 Zrotation Xrotation Yrotation
                  End Site
                  {
                    OFFSET 1.69225 -0.51767 -0.607171
                  }
                }
              }
            }
          }
        }
      }
    }
  }
  JOINT rButtock
  {
    OFFSET -8.77824 4.35084 1.2192
    CHANNELS 3 Zrotation Xrotation Yrotation
    JOINT rThigh
    {
      OFFSET 0 -1.70687 -2.19456
      CHANNELS 3 Zrotation Xrotation Yrotation
      JOINT rShin
      {
        OFFSET 0 -36.8199 0.73152
        CHANNELS 3 Zrotation Xrotation Yrotation
        JOINT rFoot
        {
          OFFSET 0.73152 -45.1104 -5.12064
          CHANNELS 3 Zrotation Xrotation Yrotation
          End Site
          {
            OFFSET -1.1221 -3.69964 12.103
          }
        }
      }
    }
  }
  JOINT lButtock
  {
    OFFSET 8.77824 4.35084 1.2192
    CHANNELS 3 Zrotation Xrotation Yrotation
    JOINT lThigh
    {
      OFFSET 0 -1.70687 -2.19456
      CHANNELS 3 Zrotation Xrotation Yrotation
      JOINT lShin
      {
        OFFSET 0 -36.8199 0.73152
        CHANNELS 3 Zrotation Xrotation Yrotation
        JOINT lFoot
        {
          OFFSET -0.73152 -45.1104 -5.12064
          CHANNELS 3 Zrotation Xrotation Yrotation
          End Site
          {
            OFFSET 1.1221 -3.69964 12.103
          }
        }
      }
    }
  }
}
MOTION
Frames:	4
Frame Time:	0.03333
-0.027601514011621475 62.150657176971436 0.08276193402707577 -4.16038703918457 2.6373331546783447 5.075692176818848 -2.4652822017669678 14.83270263671875 3.7248737812042236 2.7615180015563965 -9.740458488464355 1.1726683378219604 -5.263961315155029 14.986899375915527 -3.687772512435913 8.98676872253418 -24.188262939453125 -5.28554630279541 -0.04657665267586708 -0.035570841282606125 0.03710357844829559 0.01024818979203701 0.010137331672012806 -0.020765969529747963 -0.01115498784929514 -0.0132067259401083 0.04219973832368851 44.50544738769531 37.13630294799805 19.715505599975586 -27.598596572875977 -28.33794403076172 64.54705810546875 -0.20857380330562592 -11.80242919921875 -1.6225444078445435 0.0180944986641407 -0.012138912454247475 0.023109354078769684 0.010967489331960678 0.026562683284282684 0.008164692670106888 0.012194653041660786 0.014911769889295101 -0.03899282217025757 7.743058681488037 5.491576671600342 0.41565001010894775 -0.008716857992112637 0.03293441981077194 -0.0351606085896492 2.8522391319274902 0.9522396326065063 0.09704820811748505 -0.00685571925714612 0.015076574869453907 0.017565922811627388 10.248065948486328 0.7144591212272644 0.027380120009183884 -0.04185372591018677 0.020307151600718498 0.0190120916813612 2.25632905960083 -0.6870304346084595 -0.2109277844429016 0.014766503125429153 -0.022093599662184715 -0.016855455935001373 -52.349369049072266 39.794734954833984 -29.664804458618164 27.10440444946289 -26.507888793945312 -61.665191650390625 0.25244754552841187 -14.074437141418457 2.050245523452759 0.020052757114171982 -0.02130327746272087 -0.02787921018898487 -0.01739037036895752 -0.019333062693476677 0.01239148061722517 -0.04267449676990509 0.00569917494431138 0.01000035461038351 -7.727275371551514 5.477157115936279 -0.42110517621040344 -0.007002491038292646 0.047909073531627655 -0.0021051187068223953 -2.901737689971924 0.928948163986206 -0.0814933106303215 0.015559685416519642 -0.018881645053625107 -0.015458531677722931 -10.23430347442627 0.7581462264060974 -0.026470797136425972 0.003325654659420252 -0.002949274843558669 0.016405101865530014 -2.2150864601135254 -0.7187803387641907 0.1656084954738617 0.028289340436458588 0.0734146386384964 -0.03034089505672455 -25.904767990112305 -40.60124969482422 -21.150117874145508 -1.5257282257080078 65.55552673339844 2.6010794639587402 -3.4412178993225098 -10.621301651000977 -9.765862464904785 0.009780039079487324 -0.0398859828710556 -0.007131214253604412 29.965312957763672 -39.473052978515625 22.781333923339844 1.4496746063232422 65.59012603759766 -2.6391260623931885 4.252208232879639 -11.089653968811035 13.7367525100708
-0.1314941793680191 62.00205683708191 0.1100616529583931 -3.7386574745178223 3.301118850708008 4.978274822235107 -2.5440728664398193 14.852033615112305 3.740845203399658 2.7649378776550293 -9.711925506591797 1.1929657459259033 -5.280385971069336 14.964367866516113 -3.654658555984497 9.009275436401367 -24.188587188720703 -5.227536201477051 -0.04129600152373314 -0.07394807040691376 0.049510758370161057 0.011107032187283039 -0.001899653347209096 -0.046616364270448685 0.01481794286519289 0.045883938670158386 0.08201144635677338 44.12824249267578 36.99000549316406 20.209157943725586 -27.584476470947266 -28.376367568969727 64.61215209960938 -0.23543605208396912 -11.552279472351074 -1.6201744079589844 0.02257855050265789 -0.01836663857102394 0.03291358798742294 -0.0052020312286913395 0.03377070277929306 0.01759430766105652 0.027784308418631554 0.032341912388801575 -0.07182010263204575 7.715648651123047 5.541273593902588 0.41931572556495667 -0.012065497227013111 0.052179016172885895 -0.10378628969192505 2.8777616024017334 0.956883430480957 0.09161873161792755 -0.02513953670859337 -0.0036842289846390486 -0.013563379645347595 10.236909866333008 0.7000011801719666 0.0870659351348877 -0.026474233716726303 0.028783436864614487 -0.01450482290238142 2.2791154384613037 -0.6619218587875366 -0.21904149651527405 0.024952437728643417 -0.026424642652273178 -0.009966574609279633 -52.29142379760742 39.894737243652344 -29.751169204711914 27.218976974487305 -26.6927547454834 -61.996402740478516 0.3371580243110657 -14.649447441101074 2.1633639335632324 0.026001596823334694 -0.04038989171385765 -0.07116257399320602 -0.010874773375689983 -0.03282541781663895 0.039891600608825684 -0.060710687190294266 0.056818678975105286 0.006848123390227556 -7.778868675231934 5.494934558868408 -0.41846024990081787 0.05517985671758652 0.036451537162065506 0.02664346806704998 -2.8896682262420654 0.9317123293876648 -0.08207681775093079 0.006381520535796881 -0.07082317024469376 0.016862312331795692 -10.180895805358887 0.7675930857658386 -0.025413878262043 0.025273574516177177 0.023353831842541695 0.04101356863975525 -2.1835923194885254 -0.7390990257263184 0.1314304918050766 0.02443792298436165 0.11159002035856247 -0.07541460543870926 -26.434017181396484 -41.003936767578125 -21.381589889526367 -1.5891703367233276 65.62083435058594 2.6086502075195312 -3.3082945346832275 -10.3701753616333 -9.5977783203125 0.01836964301764965 -0.030878465622663498 -0.03473859280347824 29.599544525146484 -39.057037353515625 22.578725814819336 1.4624332189559937 65.28726196289062 -2.6766281127929688 4.261744022369385 -11.214571952819824 13.965902328491211
-0.3967277705669403 50.58718919754028 -0.12270077131688595 160.00572204589844 -66.37462615966797 -177.5697479248047 -10.2163667678833 21.827341079711914 14.827347755432129 -4.59098482131958 -12.91389274597168 3.30785870552063 2.1412336826324463 12.923918724060059 14.645673751831055 -3.382882595062256 -22.169662475585938 28.63423728942871 -0.07003621011972427 -0.12777994573116302 -0.026209844276309013 0.04185127094388008 0.10067868232727051 -0.13025113940238953 0.19024363160133362 0.09990894049406052 0.0023110201582312584 48.10626983642578 56.885677337646484 7.037155628204346 -28.64012908935547 -38.8596076965332 81.2021713256836 -0.2101183980703354 3.108259916305542 0.08072619140148163 0.16186091303825378 0.02774822898209095 -0.2638265788555145 0.022782951593399048 0.12855412065982819 -0.28287726640701294 -0.021074697375297546 0.050602711737155914 -0.3080001473426819 7.868617534637451 5.69967794418335 0.29398664832115173 0.07858047634363174 0.09579643607139587 -0.14722338318824768 2.900876998901367 0.7077520489692688 0.259378045797348 -0.4163622558116913 0.010085838846862316 0.009084588848054409 10.183003425598145 0.42313602566719055 0.20421448349952698 0.060151759535074234 0.1425178200006485 -0.20486433804035187 2.4322509765625 -0.4740242660045624 -0.40679922699928284 -0.010876930318772793 -0.0663803219795227 0.04895656555891037 -56.779014587402344 28.835891723632812 -9.601104736328125 26.715808868408203 -43.23298263549805 -91.39423370361328 0.9397411346435547 -25.340925216674805 4.256443500518799 0.2613278925418854 0.08997644484043121 -0.15782888233661652 -0.12843699753284454 -0.305374413728714 0.3052908182144165 0.15948806703090668 0.14526011049747467 -0.13595181703567505 -7.695948600769043 5.433940410614014 -0.01619514264166355 0.10975833237171173 0.4066382646560669 0.4377278983592987 -2.8802742958068848 1.057904839515686 -0.07194385677576065 0.04398650676012039 -0.006704126484692097 -0.08765707910060883 -9.878545761108398 0.5932098627090454 0.08934520930051804 0.15495094656944275 0.007143264636397362 0.1980513632297516 -2.111051559448242 -0.6027268171310425 0.03331528231501579 -0.05556106939911842 0.3873673677444458 -0.003546357387676835 -76.19137573242188 -53.39665603637695 -63.93567657470703 -164.7936553955078 85.34709167480469 166.4156036376953 3.327505111694336 -12.175353050231934 8.206056594848633 -0.04169360548257828 -0.2632433772087097 0.016257472336292267 44.39687728881836 -40.42347717285156 40.073516845703125 24.4428653717041 86.59970092773438 -26.797420501708984 6.547086238861084 -24.65867805480957 15.805291175842285
-0.30457861721515656 48.15186858177185 -0.6509157363325357 165.3943634033203 -64.05918884277344 -166.87960815429688 -12.610763549804688 21.747215270996094 16.03220558166504 -5.510248184204102 -12.704578399658203 2.98903226852417 1.1859990358352661 13.934830665588379 17.048831939697266 -7.108116626739502 -18.890119552612305 31.379011154174805 0.02386384829878807 0.39593473076820374 -0.03501853719353676 0.2848423719406128 0.058391023427248 0.13671785593032837 -0.21000166237354279 -0.19727207720279694 -0.21827170252799988 53.59130859375 54.16594314575195 0.45070701837539673 -28.315135955810547 -40.872501373291016 84.70639038085938 -0.3205420970916748 1.4746310710906982 0.34189707040786743 0.1149599477648735 -0.09772920608520508 0.016699690371751785 0.28729310631752014 0.28146398067474365 0.09810959547758102 -0.05464670807123184 -0.2272849977016449 -0.1910000890493393 7.636600017547607 5.515561580657959 0.23043106496334076 -0.20407581329345703 0.11212508380413055 -0.07768239080905914 2.9139974117279053 0.9069699645042419 0.1693030297756195 0.06351414322853088 0.20142792165279388 -0.13579590618610382 10.401548385620117 0.6333966255187988 0.40713050961494446 -0.19400334358215332 -0.029225237667560577 0.1552480012178421 2.132829189300537 -0.6264976263046265 -0.31855064630508423 -0.045765746384859085 0.04684704169631004 -0.33123689889907837 -59.136199951171875 34.99412536621094 -9.013724327087402 27.724853515625 -42.51415252685547 -88.8079833984375 0.7116513252258301 -21.80116844177246 3.058511734008789 0.28775349259376526 -0.07024632394313812 -0.39385882019996643 -0.125869020819664 -0.2190091609954834 0.2834336459636688 -0.03751843795180321 0.22034867107868195 0.20685550570487976 -8.137800216674805 5.491192817687988 -0.25490477681159973 0.06929993629455566 0.6050350666046143 0.49084538221359253 -3.1286778450012207 1.1437859535217285 0.3668108880519867 0.06234663724899292 -0.34849151968955994 -0.34684640169143677 -9.848194122314453 0.650287926197052 -0.04652245342731476 -0.27492934465408325 -0.06146960332989693 0.14472195506095886 -2.3351423740386963 -0.46444424986839294 0.04285096749663353 0.21586933732032776 0.2531229257583618 0.14310315251350403 -75.82772827148438 -53.41434860229492 -61.047019958496094 -56.81399917602539 89.30535125732422 58.11408615112305 3.866258144378662 -17.074649810791016 6.231204509735107 -0.12896427512168884 0.045200783759355545 -0.14640823006629944 44.041046142578125 -46.05056381225586 38.91172409057617 7.143153667449951 86.06343078613281 -10.331116676330566 5.537722587585449 -25.236080169677734 15.373706817626953
